<svg version="1.1" id="Layer_1" xmlns="http://www.w3.org/2000/svg" xmlns:xlink="http://www.w3.org/1999/xlink" x="0px" y="0px"
	 width="100%" viewBox="0 0 1024 816" enable-background="new 0 0 1024 816" xml:space="preserve">
<path fill="#000000" opacity="1.000000" stroke="none" 
	d="
M362.813507,507.848480 
	C384.520905,479.572754 405.999115,451.569458 427.482422,423.570038 
	C428.799316,421.853729 430.068176,420.088898 431.511749,418.483673 
	C435.484894,414.065704 441.561066,413.490570 445.826904,417.036316 
	C449.990723,420.497162 450.731323,426.682709 447.183777,431.430389 
	C439.811249,441.297028 432.269775,451.037659 424.773590,460.811584 
	C407.349701,483.529724 389.910065,506.235809 372.481415,528.950378 
	C370.755096,531.200256 369.075317,533.509216 366.469849,534.835388 
	C362.502289,536.854858 357.754120,535.906311 354.640320,532.540771 
	C351.284882,528.914062 350.873993,524.092224 353.896393,519.704346 
	C356.632050,515.732788 359.676971,511.974274 362.813507,507.848480 
z"/>
<path fill="#000000" opacity="1.000000" stroke="none" 
	d="
M700.711365,359.775452 
	C703.384277,356.804016 704.702515,352.813660 710.207336,351.868286 
	C706.236938,367.055450 696.327271,378.962769 692.243652,394.390839 
	C697.680725,392.842712 700.702026,389.852020 702.659546,385.569061 
	C703.971008,382.699493 705.010254,379.692078 706.494202,376.919067 
	C707.664246,374.732391 708.586243,371.265930 712.183777,372.921509 
	C715.903870,374.633514 714.285278,377.488495 713.015015,380.131378 
	C711.575378,383.126556 710.212524,386.163452 708.951599,389.237701 
	C708.341248,390.725739 707.658569,392.345490 709.359070,394.423492 
	C712.200867,391.931732 716.659058,391.514526 716.434082,385.840302 
	C716.347107,383.647827 719.653687,382.104095 720.744507,379.567688 
	C723.770020,372.532562 727.245422,365.677368 731.721130,359.427338 
	C733.880737,356.411621 735.878235,353.016785 739.963440,352.012543 
	C741.881226,354.254852 740.254944,356.016235 739.520508,357.655121 
	C735.505127,366.615540 731.391602,375.532867 727.216248,384.420105 
	C725.953613,387.107574 725.646362,389.452820 728.478027,391.629150 
	C732.323486,389.727325 735.118958,386.865051 736.854370,382.920624 
	C738.639893,378.862061 741.156616,375.370453 745.131714,373.218719 
	C748.451538,371.421692 751.661926,371.696686 754.079773,374.782806 
	C756.356873,377.689331 755.216309,380.436523 753.029419,382.871246 
	C750.913513,385.226990 748.813965,387.878723 745.497620,388.314056 
	C741.295227,388.865601 741.795776,391.049805 742.926636,394.090515 
	C749.823853,393.421173 751.792297,385.798920 758.938477,383.355286 
	C756.330994,390.095032 753.337769,395.106201 747.718567,397.751312 
	C742.416748,400.246918 738.580872,397.055634 735.529663,393.110352 
	C730.671204,395.335419 728.780701,398.684753 729.132568,403.897522 
	C729.424866,408.226929 728.018616,412.475983 725.406250,416.101593 
	C723.465637,418.794983 720.933105,420.895966 717.402649,420.018250 
	C713.705994,419.099091 712.313049,415.977142 711.772095,412.513336 
	C711.067139,407.999176 712.574890,403.624390 712.992432,398.771515 
	C708.930115,398.505493 705.008667,398.024567 702.398499,394.478485 
	C701.571594,394.988342 700.971680,395.268921 700.477600,395.677460 
	C697.430969,398.196350 694.106262,399.742462 690.532166,397.040436 
	C686.974304,394.350677 686.117859,390.531067 687.326477,386.288025 
	C690.053162,376.715179 695.136536,368.319000 700.711365,359.775452 
M721.426270,411.738770 
	C722.725830,407.270416 724.668640,402.835236 722.072144,398.109650 
	C719.726929,403.317413 716.639465,408.311859 717.767273,414.463776 
	C719.873840,414.403870 720.484436,413.411835 721.426270,411.738770 
z"/>
<path fill="#000000" opacity="1.000000" stroke="none" 
	d="
M486.135468,314.852844 
	C484.807495,330.772797 469.715027,339.110748 457.694641,335.445892 
	C447.107727,332.218140 440.533600,322.526459 441.730865,310.938263 
	C442.753296,301.042328 451.938293,292.465546 462.294281,291.736572 
	C472.840912,290.994171 482.814514,298.246277 485.277100,308.534637 
	C485.737488,310.458038 485.873657,312.458984 486.135468,314.852844 
z"/>
<path fill="#000000" opacity="1.000000" stroke="none" 
	d="
M517.315796,336.520142 
	C511.610046,340.029205 507.080139,339.815094 503.456207,336.133270 
	C499.846771,332.466248 499.555603,326.913269 503.248077,322.035065 
	C514.586304,307.055847 526.020020,292.147430 537.567627,277.329132 
	C541.534424,272.238770 547.443298,271.523285 552.113525,275.065338 
	C556.480835,278.377625 557.495056,284.458893 553.832214,289.284760 
	C541.875427,305.037933 529.691040,320.618317 517.315796,336.520142 
z"/>
<path fill="#000000" opacity="1.000000" stroke="none" 
	d="
M498.528198,361.919189 
	C496.070923,365.525818 493.798126,368.775818 491.434387,372.155823 
	C493.477905,374.926910 496.656464,375.185638 499.286499,376.345581 
	C505.871582,379.249878 508.769928,384.602112 506.526642,390.090149 
	C504.091797,396.046814 498.389374,398.070496 491.498596,395.284302 
	C484.712646,392.540497 477.941376,389.753784 471.231964,386.829224 
	C464.167145,383.749786 462.249420,376.606537 466.809570,370.392059 
	C471.140625,364.489746 475.622223,358.697571 480.054260,352.869659 
	C483.881683,347.836884 488.672211,346.313110 493.550110,348.542450 
	C498.445557,350.779816 500.043396,354.809570 498.528198,361.919189 
z"/>
<path fill="#000000" opacity="1.000000" stroke="none" 
	d="
M453.284363,409.923767 
	C447.148346,405.756378 445.508270,400.968475 448.180847,395.839325 
	C450.813263,390.787231 456.225128,389.121613 462.415741,391.673035 
	C475.009247,396.863281 487.601685,402.060638 500.109161,407.453094 
	C505.218567,409.655975 507.239532,413.608856 506.376526,418.650299 
	C505.580872,423.298218 502.567871,425.854340 498.130676,426.907928 
	C495.536316,427.523956 493.210724,426.502350 490.910339,425.552338 
	C478.473938,420.416229 466.049957,415.250183 453.284363,409.923767 
z"/>
<path fill="#000000" opacity="1.000000" stroke="none" 
	d="
M459.321655,363.619385 
	C455.600769,365.986267 452.037842,365.892822 448.485199,364.433167 
	C436.023468,359.313110 423.559967,354.195465 411.153839,348.942871 
	C405.110321,346.384094 402.587067,341.012695 404.611572,335.715118 
	C406.793365,330.005859 412.183807,327.573242 418.525665,330.099579 
	C431.503204,335.269226 444.419586,340.608734 457.216919,346.208008 
	C464.541779,349.412872 465.448700,357.146362 459.321655,363.619385 
z"/>
<path fill="#000000" opacity="1.000000" stroke="none" 
	d="
M348.611694,544.710266 
	C358.688171,544.790710 368.337646,545.045166 377.967255,544.006287 
	C379.582825,543.832031 381.298431,544.148193 382.913086,544.493530 
	C386.190308,545.194458 389.827789,545.816650 390.539734,549.854126 
	C391.272949,554.012207 388.621429,556.778748 385.516479,558.932251 
	C381.871796,561.459961 377.563141,563.086182 373.282104,562.733215 
	C362.322174,561.829590 351.278137,562.923523 340.370331,561.124939 
	C338.024445,560.738098 335.789551,560.177551 333.833954,558.833496 
	C331.799103,557.434937 329.215576,556.192505 329.475372,553.237610 
	C329.756165,550.043945 332.305603,548.356628 334.981171,547.344055 
	C339.205231,545.745544 343.703339,545.210022 348.611694,544.710266 
z"/>
<path fill="#000000" opacity="1.000000" stroke="none" 
	d="
M491.411621,435.486023 
	C493.737061,436.503387 495.816223,437.193787 497.666779,438.275391 
	C502.377960,441.029144 504.077911,446.465515 501.887085,451.187744 
	C499.692169,455.918823 494.355591,458.473694 489.416626,456.544128 
	C479.518066,452.676880 469.676727,448.638153 459.968811,444.317322 
	C454.311981,441.799561 452.427490,436.297180 454.751648,431.055908 
	C457.075073,425.816376 462.268982,423.600647 468.034973,425.833557 
	C475.776276,428.831390 483.391785,432.154022 491.411621,435.486023 
z"/>
<path fill="#000000" opacity="1.000000" stroke="none" 
	d="
M420.633667,409.053680 
	C412.905792,404.699341 411.528717,398.751434 416.498596,392.030029 
	C420.837921,386.161407 425.243011,380.333954 429.823914,374.653534 
	C434.225555,369.195435 439.816895,368.291687 444.642761,371.924011 
	C449.220215,375.369324 449.862183,381.653809 445.946960,386.984619 
	C441.725433,392.732513 437.148834,398.223450 433.021759,404.035675 
	C429.973938,408.327942 426.138031,410.045013 420.633667,409.053680 
z"/>
<path fill="#000000" opacity="1.000000" stroke="none" 
	d="
M656.444641,370.764191 
	C658.812012,370.985077 659.231750,372.362762 659.235474,373.982697 
	C659.245483,378.313507 659.235046,382.644592 659.193298,386.975189 
	C659.175232,388.853363 658.513062,390.201141 656.311401,390.239471 
	C654.356445,390.273499 653.699585,389.212708 653.623535,387.447632 
	C653.545349,385.634521 653.735474,383.573242 651.035461,383.442261 
	C648.283997,383.308777 648.320190,385.319031 648.234985,387.178680 
	C648.145325,389.135437 647.400635,390.347015 645.207886,390.212616 
	C642.857178,390.068542 642.719482,388.392426 642.708313,386.660339 
	C642.681641,382.495911 642.691223,378.331238 642.694458,374.166656 
	C642.695862,372.346954 643.060852,370.828949 645.369202,370.807892 
	C647.584900,370.787659 648.173340,372.107697 648.240662,374.020996 
	C648.298645,375.670074 648.157532,377.577972 650.649109,377.569702 
	C653.023743,377.561859 653.056641,375.659393 653.305664,374.041626 
	C653.564331,372.361267 653.586243,370.575165 656.444641,370.764191 
z"/>
<path fill="#000000" opacity="1.000000" stroke="none" 
	d="
M563.739014,383.886505 
	C563.741272,382.238586 563.745667,381.072235 563.746216,379.905914 
	C563.750671,370.116669 563.750244,370.120514 573.795471,370.678070 
	C575.627808,370.779755 577.688782,370.564423 577.884277,373.194824 
	C578.097534,376.064850 576.097534,376.346130 573.938293,376.399170 
	C573.153564,376.418396 572.371521,376.547760 570.366150,376.750305 
	C573.079041,378.033020 575.965942,377.203308 576.026672,380.337433 
	C576.090820,383.652405 573.303284,383.000671 571.509583,383.762482 
	C571.742676,384.081787 571.873413,384.469574 572.091431,384.527191 
	C574.266846,385.102264 577.896118,383.653625 577.822144,387.538177 
	C577.739807,391.860870 573.932495,390.231293 571.639893,390.298492 
	C564.038452,390.521362 564.034912,390.400116 563.739014,383.886505 
z"/>
<path fill="#000000" opacity="1.000000" stroke="none" 
	d="
M553.003906,388.911682 
	C552.787231,387.845276 552.693909,387.184570 552.659729,386.520844 
	C552.577942,384.927979 552.348755,383.465546 550.273438,383.415802 
	C548.082153,383.363312 547.387634,384.693817 547.358276,386.608063 
	C547.327881,388.591797 547.049805,390.359863 544.419617,390.206024 
	C541.828003,390.054443 541.735474,388.137573 541.718384,386.257690 
	C541.682007,382.262512 541.697205,378.266693 541.717896,374.271271 
	C541.727112,372.492493 542.025146,370.922058 544.330811,370.813843 
	C546.506409,370.711792 547.282166,371.843750 547.308289,373.847595 
	C547.332581,375.712494 547.278625,377.725586 550.055847,377.576843 
	C552.708008,377.434753 552.618408,375.416626 552.690918,373.581665 
	C552.761841,371.785614 553.521240,370.816376 555.422424,370.803802 
	C557.666077,370.788971 558.256042,372.137360 558.262207,374.029083 
	C558.275696,378.191010 558.321838,382.353546 558.270325,386.514801 
	C558.222534,390.380432 556.375122,391.149658 553.003906,388.911682 
z"/>
<path fill="#000000" opacity="1.000000" stroke="none" 
	d="
M597.285400,390.050781 
	C594.157166,387.663452 591.317871,387.071838 588.292908,389.381836 
	C586.668457,390.622314 584.952637,390.587036 582.258972,389.369507 
	C585.244202,383.175507 588.191406,377.060364 591.781982,369.610352 
	C596.474060,376.420746 598.861389,382.837128 601.846741,388.727051 
	C600.658936,390.856018 599.074036,390.198029 597.285400,390.050781 
z"/>
<path fill="#000000" opacity="1.000000" stroke="none" 
	d="
M667.510986,377.615051 
	C666.411499,375.408081 664.640015,373.879486 664.891907,371.402832 
	C668.835510,369.342133 671.008423,371.632935 672.982422,375.106262 
	C675.487427,372.678284 677.338623,368.928925 681.613708,371.345001 
	C682.205017,373.545715 680.470093,374.940186 679.557190,376.582367 
	C677.783875,379.772034 675.880371,382.850006 676.269165,386.763336 
	C676.470825,388.793457 675.820435,390.315399 673.287415,390.296143 
	C670.933533,390.278259 669.967407,389.017395 669.964478,386.906433 
	C669.960083,383.710907 669.651733,380.627991 667.510986,377.615051 
z"/>
<path fill="#000000" opacity="1.000000" stroke="none" 
	d="
M629.043884,390.210083 
	C625.190857,388.103302 627.137451,384.787506 626.753967,382.057800 
	C626.401184,379.546906 627.394165,376.635223 623.449158,375.966766 
	C621.966980,375.715607 621.777954,374.066986 622.018066,372.667725 
	C622.255859,371.282471 623.295105,370.784363 624.544678,370.767670 
	C628.017822,370.721252 631.492065,370.720093 634.965576,370.745392 
	C636.231323,370.754608 637.238892,371.264069 637.468262,372.651306 
	C637.661316,373.818970 637.770020,375.411926 636.593384,375.748474 
	C631.230042,377.282684 633.616577,381.580505 633.214050,384.815521 
	C632.897156,387.362518 633.766113,390.496765 629.043884,390.210083 
z"/>
<path fill="#000000" opacity="1.000000" stroke="none" 
	d="
M618.689148,390.266479 
	C605.596313,390.388397 607.004395,391.767883 606.937927,379.409241 
	C606.927246,377.422760 606.969360,375.430115 607.119629,373.450378 
	C607.249878,371.735260 608.171509,370.756561 610.034607,370.794861 
	C611.853638,370.832336 612.807922,371.761169 612.954468,373.491974 
	C613.080078,374.975006 613.146362,376.474945 613.079163,377.960175 
	C612.902344,381.863892 612.849976,385.543091 618.531494,384.865295 
	C619.739624,384.721161 620.842468,385.360687 621.051575,386.755127 
	C621.290039,388.345642 621.074707,389.769897 618.689148,390.266479 
z"/>
<path fill="#000000" opacity="1.000000" stroke="none" 
	d="
M716.007568,363.052429 
	C718.792603,362.212646 720.768494,362.786896 720.991516,365.581573 
	C721.195923,368.143951 719.579285,369.934113 717.259094,370.813751 
	C715.895996,371.330505 714.520264,370.670776 713.992920,369.323517 
	C713.067627,366.959625 713.516113,364.805511 716.007568,363.052429 
z"/>
</svg>